<?xml version="1.0" encoding="iso-8859-1"?>
<!-- Uploaded to: SVG Repo, www.svgrepo.com, Generator: SVG Repo Mixer Tools -->
<!DOCTYPE svg PUBLIC "-//W3C//DTD SVG 1.1//EN" "http://www.w3.org/Graphics/SVG/1.1/DTD/svg11.dtd">
<svg height="800px" width="800px" version="1.1" id="Capa_1" xmlns="http://www.w3.org/2000/svg" xmlns:xlink="http://www.w3.org/1999/xlink" 
	 viewBox="0 0 68.586 68.586" xml:space="preserve">
<path style="fill:#231F20;" d="M63.346,0H5.24C2.61,0,0.471,2.139,0.471,4.769v59.048c0,2.63,2.139,4.769,4.769,4.769h58.105
	c2.63,0,4.769-2.139,4.769-4.769V4.769C68.115,2.139,65.976,0,63.346,0z M66.115,63.817c0,1.527-1.242,2.769-2.769,2.769H5.24
	c-1.527,0-2.769-1.242-2.769-2.769V4.769C2.471,3.242,3.713,2,5.24,2h58.105c1.527,0,2.769,1.242,2.769,2.769V63.817z M58.568,6.475
	h-48.55c-1.732,0-3.149,1.417-3.149,3.149v49.338c0,1.732,1.417,3.149,3.149,3.149h48.55c1.732,0,3.149-1.417,3.149-3.149V9.624
	C61.717,7.892,60.3,6.475,58.568,6.475z M30.269,47.5c-0.16,3.611-0.295,10.02-12.896,6.534
	c-12.91-3.571,12.033-29.753,12.896-20.462C30.773,38.994,30.423,44.021,30.269,47.5z M37.006,40.825
	c-0.895-0.358-1.953-0.572-3.079-0.572c-1.032,0-1.999,0.189-2.844,0.494c0.009-0.717,0.008-1.454-0.002-2.209
	c0.568-0.154,1.156-0.28,1.783-0.339V12.415c0-0.587,0.477-1.064,1.064-1.064c0.587,0,1.064,0.477,1.064,1.064V38.2
	c0.716,0.067,1.383,0.22,2.021,0.411C37.001,39.367,36.998,40.105,37.006,40.825z M51.098,54.735
	c-12.994,3.594-13.134-3.015-13.299-6.738c-0.159-3.587-0.52-8.772,0-14.363C38.689,24.053,64.411,51.052,51.098,54.735z"/>
</svg>