<?xml version="1.0" encoding="iso-8859-1"?>
<!-- Uploaded to: SVG Repo, www.svgrepo.com, Generator: SVG Repo Mixer Tools -->
<svg height="800px" width="800px" version="1.1" id="Layer_1" xmlns="http://www.w3.org/2000/svg" xmlns:xlink="http://www.w3.org/1999/xlink" 
	 viewBox="0 0 509.648 509.648" xml:space="preserve">
<g>
	<polygon style="fill:#DB2B42;" points="254.664,360.776 211.032,334.88 2.76,211.824 2.76,509.648 	"/>
	<polygon style="fill:#DB2B42;" points="255.088,360.928 506.768,509.648 506.768,211.896 461.424,238.672 461.424,238.624 
		461.304,238.696 461.304,238.904 	"/>
</g>
<polygon style="fill:#EA5071;" points="255,360.976 254.68,360.784 2.76,509.648 506.768,509.648 255.088,360.928 "/>
<polygon style="fill:#EFEFEF;" points="254.68,360.784 255,360.976 255.088,360.928 461.304,238.904 461.304,238.696 
	461.304,59.512 313.24,59.56 378.624,126.232 339.976,163.944 281.904,104.736 281.904,247.608 227.744,247.608 227.744,104.736 
	169.672,163.944 131.024,126.232 196.376,59.6 48.344,59.648 48.344,238.312 211.032,334.88 254.664,360.776 "/>
<g>
	<polygon style="fill:#BC243E;" points="48.224,177.464 2.76,211.824 48.224,238.672 	"/>
	<polygon style="fill:#BC243E;" points="506.768,211.896 506.888,211.824 461.424,177.464 461.424,238.624 461.424,238.672 	"/>
</g>
<polygon style="fill:#8AD5DD;" points="169.672,163.944 227.744,104.736 227.744,247.608 281.904,247.608 281.904,104.736 
	339.976,163.944 378.624,126.232 313.24,59.56 254.824,0 196.376,59.6 131.024,126.232 "/>
</svg>