<?xml version="1.0" encoding="iso-8859-1"?>
<!-- Uploaded to: SVG Repo, www.svgrepo.com, Generator: SVG Repo Mixer Tools -->
<svg height="800px" width="800px" version="1.1" id="Layer_1" xmlns="http://www.w3.org/2000/svg" xmlns:xlink="http://www.w3.org/1999/xlink" 
	 viewBox="0 0 512 512" xml:space="preserve">
<path style="fill:#D80027;" d="M256,0C161.744,0,85.333,76.411,85.333,170.667v68.267l56.888,51.2l-56.888,51.2V512L256,360.107
	L426.667,512V341.333l-56.89-51.2l56.89-51.2v-68.267C426.667,76.411,350.258,0,256,0z M256,102.4
	c29.425,0,54.501,18.616,64.094,44.716L256,204.8l-64.094-57.684C201.499,121.016,226.575,102.4,256,102.4z"/>
<path style="fill:#A2001D;" d="M426.667,170.667C426.667,76.411,350.258,0,256,0c0,21.05,0,71.112,0,102.4
	c29.425,0,54.501,18.616,64.094,44.716L256,204.8v155.307L426.667,512V341.333l-56.89-51.2l56.89-51.2V170.667z"/>
</svg>