<?xml version="1.0" ?>
<!-- Uploaded to: SVG Repo, www.svgrepo.com, Generator: SVG Repo Mixer Tools -->
<svg width="800px" height="800px" viewBox="0 0 32 32" xmlns="http://www.w3.org/2000/svg">
<defs>
<style>.cls-1{fill:#77acf1;}.cls-2{fill:#04009a;}</style>
</defs>
<g data-name="16. Protect Box" id="_16._Protect_Box">
<path class="cls-1" d="M10,1h6a0,0,0,0,1,0,0V6.13a.87.87,0,0,1-.87.87H10.87A.87.87,0,0,1,10,6.13V1A0,0,0,0,1,10,1Z"/>
<path class="cls-2" d="M15,26H3a3,3,0,0,1-3-3V3A3,3,0,0,1,3,0H23a3,3,0,0,1,3,3v9a1,1,0,0,1-2,0V3a1,1,0,0,0-1-1H3A1,1,0,0,0,2,3V23a1,1,0,0,0,1,1H15a1,1,0,0,1,0,2Z"/>
<path class="cls-2" d="M7,22H5a1,1,0,0,1,0-2H7a1,1,0,0,1,0,2Z"/>
<path class="cls-2" d="M25,32a1.19,1.19,0,0,1-.32-.05A9.77,9.77,0,0,1,18,22.68V19a1,1,0,0,1,.55-.89l6-3a1,1,0,0,1,.9,0l6,3A1,1,0,0,1,32,19v3.68A9.77,9.77,0,0,1,25.32,32,1.19,1.19,0,0,1,25,32ZM20,19.62v3.06a7.77,7.77,0,0,0,5,7.26,7.77,7.77,0,0,0,5-7.26V19.62l-5-2.5Z"/>
<path class="cls-1" d="M25,27.56a1,1,0,0,1-.58-.18A5.77,5.77,0,0,1,22,22.68V21.47a1,1,0,0,1,.55-.89l2-1a1,1,0,0,1,.9,0l2,1a1,1,0,0,1,.55.89v1.21a5.77,5.77,0,0,1-2.42,4.7A1,1,0,0,1,25,27.56Z"/>
</g>
</svg>